<svg xmlns="http://www.w3.org/2000/svg" xmlns:xlink="http://www.w3.org/1999/xlink" version="1.1" id="Layer_1" x="0px" y="0px" width="50px" height="50px" viewBox="0 0 50 50" enable-background="new 0 0 50 50" xml:space="preserve">
<g>
	<g>
		<path fill="#000000" d="M20.58,33.117c-2.977-0.559-5.115-1.623-6.646-2.969L6.48,30.758l-0.02,0.189    c-1.547-0.062-2.894,1.266-3.02,3.004c-0.04,0.496,0.037,0.969,0.185,1.402c0.228,0.926,0.895,1.653,1.762,1.871    c0.217,0.075,0.444,0.141,0.686,0.155c0.75,0.05,1.445-0.228,1.994-0.715l0.035,0.033c-1.184,1.606-1.082,4.514-1.082,4.514    s0.011,0.017,0.014,0.021c-0.032,0.213-0.072,0.428-0.072,0.646c0,2.697,2.512,4.881,5.617,4.881c1.146,0,2.214-0.303,3.1-0.817    c0.006,0,0.006,0,0.006,0c2.899-0.228,5.006-8.219,5.962-12.683C21.256,33.223,20.896,33.178,20.58,33.117z"/>
		<path fill="#000000" d="M46.148,34.658c-0.33-0.648-0.862-1.145-1.508-1.404l0.008-0.023l-8.379-3.407l-0.06-0.091    c-1.438,1.14-3.313,2.115-5.757,2.824c-2.096,0.603-6.157,0.93-8.789,0.703l-1.559,9.334l0.009,0.004    c-0.316,0.607-0.496,1.275-0.496,1.984c0,2.697,2.515,4.881,5.617,4.881c2.806,0,5.111-1.797,5.529-4.131l0.086,0.018l-0.029-0.51    c0.008-0.086,0.029-0.172,0.029-0.258c0-0.27-0.041-0.531-0.093-0.793l-0.405-6.947l2.229,6.926l0.181-0.086    c0.565,2.17,2.791,3.793,5.467,3.793c3.103,0,5.617-2.184,5.617-4.881c0-1.084-0.423-2.074-1.109-2.889l0.008-0.006l-0.178-0.27    l0.047-0.13c0.242,0.101,0.503,0.175,0.781,0.195c1.035,0.075,1.98-0.479,2.555-1.369c0.34-0.459,0.563-1.028,0.609-1.658    C46.607,35.801,46.445,35.176,46.148,34.658z"/>
	</g>
	<path fill="#000000" d="M22.747,16.515c0,0.242,0.011,0.478,0.04,0.695c0.139-0.153,0.228-0.238,0.228-0.238   s0.206-0.293,0.423-0.742C23.204,16.322,22.979,16.417,22.747,16.515z"/>
	<path fill="#000000" d="M26.08,15.665c0.26,0.921,0.746,1.606,0.746,1.606s0.049,0.047,0.134,0.137   c0.116-0.486,0.172-1.072,0.103-1.73C26.738,15.652,26.412,15.648,26.08,15.665z"/>
	<path fill="#000000" d="M38.82,12.093c0.576,4.729-2.603,6.816-2.603,6.816c2.388-3.127,0.128-7.324-0.581-8.484   c0,0-0.421-0.575-0.482-0.615C29.006,3,31.45,0.537,31.45,0.537c-3.365,1.908-2.521,4.861-2.521,4.861   c0.561,1.959,0.45,3.648,0.135,4.982c-0.164-0.168-0.252-0.258-0.252-0.258s-1.914-2.645-1.703-5.477c0,0-0.795,1.014-1.712,2.42   c-1.055-1.694-2.075-2.986-2.075-2.986c0.212,2.841-1.702,5.482-1.702,5.482s-0.161,0.156-0.429,0.441   c-0.158-1.16-0.126-2.525,0.311-4.039c0,0,0.852-2.955-2.522-4.864c0,0,2.447,2.464-3.702,9.275   c-0.062,0.04-0.484,0.615-0.484,0.615c-0.704,1.157-2.964,5.358-0.578,8.479c0,0-3.173-2.087-2.597-6.821   c0,0-6.682,16.167,8.661,19.049c2.444,0.463,7.467,0.137,9.873-0.559C45.279,26.771,38.82,12.093,38.82,12.093z M26.889,14.705   c0.094,0.318,0.143,0.621,0.174,0.91c1.188,0.102,2.297,0.506,3.127,1.432c0.033,0.021,0.258,0.328,0.258,0.328   c0.371,0.609,1.574,2.837,0.308,4.492c0,0,1.683-1.104,1.376-3.613c0,0,3.165,6.621-4.594,10.1c0,0-0.15,0.006-0.41,0.006   c-0.025,0.005-0.05,0.013-0.08,0.017c-0.051,0.019-0.102,0.045-0.156,0.063c-1.426,0.502-2.909,0.551-4.175,0.223   c-0.255,0-0.415-0.008-0.415-0.008c-7.75-3.478-4.592-10.1-4.592-10.1c-0.302,2.507,1.379,3.616,1.379,3.616   c-1.197-1.571-0.195-3.63,0.232-4.37c-0.187,0.057-0.206,0.029,0.078-0.129c0,0,0.222-0.307,0.255-0.324   c3.257-3.617,1.964-4.917,1.964-4.917c1.786,1.009,1.337,2.576,1.337,2.576c-0.094,0.327-0.15,0.638-0.177,0.935   c-0.014,0.105-0.021,0.201-0.026,0.305c0.248-0.078,0.5-0.151,0.76-0.223c0.238-0.536,0.46-1.26,0.406-2.013   c0,0,0.512,0.651,1.056,1.514c0.043-0.021,0.085-0.034,0.126-0.053c0.449-0.679,0.826-1.163,0.826-1.163   c-0.021,0.272,0.007,0.534,0.05,0.793"/>
	<path fill="#000000" d="M27.063,15.677H26.04c0,0-0.185-0.863,0-1.047c0.144-0.142,1.356,0.02,1.356,0.02L27.063,15.677z"/>
	<path fill="#000000" d="M19.199,17.962h-1.02c0,0-0.19-0.861,0-1.049c0.139-0.139,1.352,0.019,1.352,0.019L19.199,17.962z"/>
	<polygon fill="#000000" points="22.769,17.022 22.75,16.244 23.51,16.021  "/>
</g>
</svg>